# xmcd CD database file
#
# Track frame offsets:
#	150
#	20405
#	38207
#	53645
#	69360
#	87347
#	100382
#	114250
#	131115
#	151480
#	173397
#	187955
#	209747
#	228627
#
# Disc length: 3237 seconds
#
# Revision: 0
# Processed by: cddbd v1.5.2PL0 Copyright (c) Steve Scherf et al.
# Submitted via: CDex 1.51
#
DISCID=b80ca30e
DTITLE=Dave Plaehn - Can't Get My Rest
DYEAR=2002
DGENRE=Blues
TTITLE0=Sacred Tuning/Drop Down Mama
TTITLE1=Who Do You Love
TTITLE2=Want a Woman to Love
TTITLE3=Can't Get My Rest
TTITLE4=She Took Off My Romeos
TTITLE5=Don't Say You Don't Love Me
TTITLE6=Hey Hey Baby
TTITLE7=Room To Move
TTITLE8=Unless I Got Room
TTITLE9=Would You DoThe Same For Me
TTITLE10=Aberdeen
TTITLE11=Wish You Would
TTITLE12=Mercury Blues
TTITLE13=I Belong To The Band
EXTD=YEAR: 2002
EXTT0=
EXTT1=
EXTT2=
EXTT3=
EXTT4=
EXTT5=
EXTT6=
EXTT7=
EXTT8=
EXTT9=
EXTT10=
EXTT11=
EXTT12=
EXTT13=
PLAYORDER=
